<svg version="1.0" xmlns="http://www.w3.org/2000/svg"
 width="650.000000pt" height="650.000000pt" viewBox="0 0 650.000000 650.000000"
 preserveAspectRatio="xMidYMid meet">

<g transform="translate(0.000000,650.000000) scale(0.100000,-0.100000)"
fill="#000000" stroke="none">
<path d="M1990 6005 l0 -235 -495 0 -495 0 0 -265 0 -265 -240 0 -240 0 0
-495 0 -495 -260 0 -260 0 0 -1235 0 -1235 260 0 260 0 0 -260 0 -260 240 0
240 0 0 -240 0 -240 260 0 260 0 0 -260 0 -260 1730 0 1730 0 0 260 0 260 260
0 260 0 0 240 0 240 240 0 240 0 0 260 0 260 260 0 260 0 0 1235 0 1235 -260
0 -260 0 0 495 0 495 -240 0 -240 0 0 265 0 265 -495 0 -495 0 0 235 0 235
-1260 0 -1260 0 0 -235z m0 -2995 l0 -760 500 0 500 0 0 500 0 500 260 0 260
0 0 260 0 260 735 0 735 0 0 -260 0 -260 260 0 260 0 0 -995 0 -995 -260 0
-260 0 0 -240 0 -240 -1730 0 -1730 0 0 240 0 240 -260 0 -260 0 0 260 0 260
-240 0 -240 0 0 995 0 995 735 0 735 0 0 -760z"/>
<path d="M1000 2750 l0 -500 260 0 260 0 0 -235 0 -235 235 0 235 0 0 -260 0
-260 500 0 500 0 0 260 0 260 260 0 260 0 0 235 0 235 -260 0 -260 0 0 -235 0
-235 -500 0 -500 0 0 235 0 235 -235 0 -235 0 0 500 0 500 -260 0 -260 0 0
-500z"/>
<path d="M3980 2750 l0 -500 265 0 265 0 0 500 0 500 -265 0 -265 0 0 -500z"/>
</g>
</svg>
